<?xml version="1.0" encoding="utf-8"?>
<!-- Generator: Adobe Illustrator 23.1.0, SVG Export Plug-In . SVG Version: 6.00 Build 0)  -->
<svg version="1.1" id="Calque_1" xmlns="http://www.w3.org/2000/svg" xmlns:xlink="http://www.w3.org/1999/xlink" x="0px" y="0px"
	 viewBox="0 0 344 212" style="enable-background:new 0 0 344 212;" xml:space="preserve">
<style type="text/css">
	.st0{fill:#FFFFFF;}
	.st1{fill:#FFFFFF;filter:url(#Adobe_OpacityMaskFilter);}
	.st2{mask:url(#mask0_14_225_1_);}
</style>
<path class="st0" d="M25.2,186.4c-4.2,0-8.1-1-11.6-2.9c-3.5-2-6.3-4.7-8.4-8.2c-2-3.5-3.1-7.5-3.1-11.9c0-4.4,1-8.3,3.1-11.8
	c2.1-3.5,4.9-6.2,8.4-8.2c3.5-2,7.4-2.9,11.6-2.9s8.1,1,11.6,2.9c3.5,2,6.3,4.7,8.3,8.2c2,3.5,3.1,7.4,3.1,11.8
	c0,4.4-1,8.4-3.1,11.9c-2,3.5-4.8,6.2-8.3,8.2S29.4,186.4,25.2,186.4z M25.2,176.5c3.6,0,6.4-1.2,8.6-3.6c2.2-2.4,3.3-5.5,3.3-9.5
	c0-4-1.1-7.1-3.3-9.5c-2.1-2.4-5-3.6-8.6-3.6c-3.6,0-6.5,1.2-8.7,3.5c-2.1,2.3-3.2,5.5-3.2,9.5c0,4,1.1,7.1,3.2,9.5
	C18.7,175.3,21.6,176.5,25.2,176.5z M82.4,149.9c4.2,0,7.5,1.4,10,4.1c2.5,2.7,3.8,6.4,3.8,11.1V186H85.3v-19.4
	c0-2.4-0.6-4.2-1.9-5.6c-1.2-1.3-2.9-2-5-2c-2.1,0-3.8,0.7-5,2c-1.2,1.3-1.9,3.2-1.9,5.6V186H60.7v-35.7h10.9v4.7
	c1.1-1.6,2.6-2.8,4.5-3.7C78,150.4,80.1,149.9,82.4,149.9z M143.9,167.6c0,1-0.1,2.1-0.2,3.2h-24.8c0.2,2.2,0.9,3.9,2.1,5.1
	c1.3,1.2,2.8,1.7,4.7,1.7c2.7,0,4.6-1.2,5.7-3.5H143c-0.6,2.3-1.7,4.5-3.3,6.3c-1.5,1.9-3.5,3.3-5.8,4.4c-2.3,1.1-5,1.6-7.9,1.6
	c-3.5,0-6.6-0.7-9.3-2.2c-2.7-1.5-4.9-3.6-6.4-6.4c-1.5-2.8-2.3-6-2.3-9.7c0-3.7,0.7-7,2.2-9.7c1.5-2.8,3.7-4.9,6.4-6.4
	c2.7-1.5,5.9-2.2,9.4-2.2c3.5,0,6.5,0.7,9.2,2.2c2.7,1.5,4.8,3.5,6.3,6.2C143.1,160.8,143.9,164,143.9,167.6z M132.7,164.7
	c0-1.9-0.6-3.4-1.9-4.5c-1.3-1.1-2.9-1.7-4.8-1.7c-1.8,0-3.4,0.5-4.7,1.6c-1.2,1.1-2,2.6-2.3,4.5H132.7z M190.3,155.5
	c0,2.6-0.6,5-1.8,7.2c-1.2,2.1-3,3.9-5.5,5.2s-5.5,2-9.2,2H167V186H156v-44.9h17.7c3.6,0,6.6,0.6,9.1,1.9c2.5,1.2,4.3,2.9,5.6,5.1
	C189.7,150.2,190.3,152.7,190.3,155.5z M172.9,161.2c2.1,0,3.6-0.5,4.7-1.5c1-1,1.5-2.4,1.5-4.2c0-1.8-0.5-3.2-1.5-4.2
	c-1-1-2.6-1.5-4.7-1.5h-6v11.3H172.9z M200.2,168.1c0-3.7,0.7-6.9,2-9.7c1.4-2.8,3.3-4.9,5.7-6.4c2.4-1.5,5.1-2.2,8-2.2
	c2.5,0,4.7,0.5,6.6,1.5c1.9,1,3.4,2.4,4.4,4v-5.1h10.9V186H227v-5.1c-1.1,1.7-2.6,3-4.5,4c-1.9,1-4.1,1.5-6.6,1.5
	c-2.9,0-5.5-0.7-7.9-2.2c-2.4-1.5-4.3-3.7-5.7-6.5C200.9,175,200.2,171.7,200.2,168.1z M227,168.1c0-2.7-0.8-4.9-2.3-6.5
	c-1.5-1.6-3.3-2.4-5.5-2.4s-4,0.8-5.6,2.4c-1.5,1.5-2.2,3.7-2.2,6.4s0.7,4.9,2.2,6.5c1.5,1.6,3.4,2.4,5.6,2.4s4-0.8,5.5-2.4
	C226.2,173,227,170.9,227,168.1z M265.8,149.8c2.5,0,4.7,0.5,6.6,1.5c1.9,1,3.4,2.4,4.4,4v-5.1h10.9v35.6c0,3.3-0.7,6.3-2,8.9
	c-1.3,2.7-3.3,4.8-6,6.4c-2.6,1.6-6,2.4-9.9,2.4c-5.3,0-9.6-1.3-12.9-3.8c-3.3-2.5-5.2-5.8-5.6-10.1h10.8c0.3,1.4,1.2,2.4,2.4,3.2
	c1.3,0.8,2.9,1.2,4.7,1.2c2.3,0,4.1-0.7,5.4-2c1.4-1.3,2-3.3,2-6.2v-5.1c-1.1,1.7-2.5,3-4.4,4.1c-1.9,1-4.1,1.5-6.6,1.5
	c-2.9,0-5.6-0.7-8-2.2c-2.4-1.5-4.3-3.7-5.7-6.5c-1.4-2.8-2-6.1-2-9.7c0-3.7,0.7-6.9,2-9.7c1.4-2.8,3.3-4.9,5.7-6.4
	C260.2,150.5,262.8,149.8,265.8,149.8z M276.8,168.1c0-2.7-0.8-4.9-2.3-6.5c-1.5-1.6-3.3-2.4-5.5-2.4s-4,0.8-5.6,2.4
	c-1.5,1.5-2.2,3.7-2.2,6.4s0.7,4.9,2.2,6.5c1.5,1.6,3.4,2.4,5.6,2.4s4-0.8,5.5-2.4C276,173,276.8,170.9,276.8,168.1z M335.7,167.6
	c0,1-0.1,2.1-0.2,3.2h-24.8c0.2,2.2,0.9,3.9,2.1,5.1c1.3,1.2,2.8,1.7,4.7,1.7c2.7,0,4.6-1.2,5.7-3.5h11.6c-0.6,2.3-1.7,4.5-3.3,6.3
	c-1.5,1.9-3.5,3.3-5.8,4.4c-2.3,1.1-5,1.6-7.9,1.6c-3.5,0-6.6-0.7-9.3-2.2c-2.7-1.5-4.9-3.6-6.4-6.4c-1.5-2.8-2.3-6-2.3-9.7
	c0-3.7,0.7-7,2.2-9.7c1.5-2.8,3.7-4.9,6.4-6.4c2.7-1.5,5.9-2.2,9.4-2.2c3.5,0,6.5,0.7,9.2,2.2c2.7,1.5,4.8,3.5,6.3,6.2
	C335,160.8,335.7,164,335.7,167.6z M324.5,164.7c0-1.9-0.6-3.4-1.9-4.5c-1.3-1.1-2.9-1.7-4.8-1.7c-1.8,0-3.4,0.5-4.7,1.6
	c-1.2,1.1-2,2.6-2.3,4.5H324.5z"/>
<defs>
	<filter id="Adobe_OpacityMaskFilter" filterUnits="userSpaceOnUse" x="70" y="0.1" width="208" height="144.4">
		<feColorMatrix  type="matrix" values="1 0 0 0 0  0 1 0 0 0  0 0 1 0 0  0 0 0 1 0"/>
	</filter>
</defs>
<mask maskUnits="userSpaceOnUse" x="70" y="0.1" width="208" height="144.4" id="mask0_14_225_1_">
	<path class="st1" d="M278,0H70v144.5h208V0z"/>
</mask>
<g class="st2">
	<path class="st0" d="M97,79.4c-5.9-5.2-9.5-12.6-9.8-20.5c-0.3-7.9,2.5-15.5,8-21.2c5.4-5.7,13-8.9,20.9-8.9
		c7.9,0,15.4,3.2,20.9,8.9c5.4,5.7,8.3,13.4,8,21.2c-0.3,7.9-3.9,15.3-9.8,20.5c7.8,3.6,14.5,9.2,19.3,16.4
		c8-10,18.6-17.7,30.7-22.1c-9.4-6.6-15.6-17-16.9-28.4s2.3-22.9,10-31.5c7.7-8.6,18.7-13.5,30.2-13.5c11.5,0,22.5,4.9,30.2,13.5
		c7.7,8.6,11.3,20.1,10,31.5s-7.5,21.8-16.9,28.4c13.5,4.7,25.2,13.5,33.5,25.2c8.3,11.6,12.8,25.6,12.9,39.9c0,3.2-2.6,5.8-5.8,5.8
		c-3.2,0-5.8-2.6-5.8-5.8c0-20.6-11-39.7-28.9-50c-17.9-10.3-39.9-10.3-57.8,0c-17.9,10.3-28.9,29.4-28.9,50c0,3.2-2.6,5.8-5.8,5.8
		c-3.2,0-5.8-2.6-5.8-5.8c0-11.2,2.7-22.3,8-32.2c-4.6-9.4-13.2-16.2-23.4-18.5c-10.2-2.3-20.9,0.1-29.1,6.6
		c-8.2,6.5-13.1,16.3-13.2,26.7c0,3.2-2.6,5.8-5.8,5.8c-3.2,0-5.8-2.6-5.8-5.8c0-8.8,2.5-17.5,7.3-25C82.1,89,88.9,83,97,79.4
		L97,79.4z M237.1,40.5c0-7.7-3-15-8.5-20.4c-5.4-5.4-12.8-8.5-20.4-8.5c-7.7,0-15,3-20.4,8.5c-5.4,5.4-8.5,12.8-8.5,20.4
		c0,7.7,3,15,8.5,20.4c5.4,5.4,12.8,8.5,20.4,8.5c7.7,0,15-3,20.4-8.5C234.1,55.5,237.1,48.1,237.1,40.5z M115.8,40.5
		c-4.6,0-9,1.8-12.3,5.1c-3.3,3.3-5.1,7.7-5.1,12.3c0,4.6,1.8,9,5.1,12.3c3.3,3.3,7.7,5.1,12.3,5.1c4.6,0,9-1.8,12.3-5.1
		c3.3-3.3,5.1-7.7,5.1-12.3c0-4.5-1.8-8.9-4.9-12.1c-3.2-3.2-7.5-5.1-12-5.2H115.8z"/>
</g>
</svg>
