<svg width="344" height="212" viewBox="0 0 344 212" fill="none" xmlns="http://www.w3.org/2000/svg">
<path d="M25.216 186.448C20.992 186.448 17.1093 185.467 13.568 183.504C10.0693 181.541 7.27467 178.811 5.184 175.312C3.136 171.771 2.112 167.803 2.112 163.408C2.112 159.013 3.136 155.067 5.184 151.568C7.27467 148.069 10.0693 145.339 13.568 143.376C17.1093 141.413 20.992 140.432 25.216 140.432C29.44 140.432 33.3013 141.413 36.8 143.376C40.3413 145.339 43.1147 148.069 45.12 151.568C47.168 155.067 48.192 159.013 48.192 163.408C48.192 167.803 47.168 171.771 45.12 175.312C43.072 178.811 40.2987 181.541 36.8 183.504C33.3013 185.467 29.44 186.448 25.216 186.448ZM25.216 176.464C28.8 176.464 31.6587 175.269 33.792 172.88C35.968 170.491 37.056 167.333 37.056 163.408C37.056 159.44 35.968 156.283 33.792 153.936C31.6587 151.547 28.8 150.352 25.216 150.352C21.5893 150.352 18.688 151.525 16.512 153.872C14.3787 156.219 13.312 159.397 13.312 163.408C13.312 167.376 14.3787 170.555 16.512 172.944C18.688 175.291 21.5893 176.464 25.216 176.464ZM82.4405 149.904C86.6218 149.904 89.9498 151.269 92.4245 154C94.9418 156.688 96.2005 160.4 96.2005 165.136V186H85.3205V166.608C85.3205 164.219 84.7018 162.363 83.4645 161.04C82.2272 159.717 80.5632 159.056 78.4725 159.056C76.3818 159.056 74.7178 159.717 73.4805 161.04C72.2432 162.363 71.6245 164.219 71.6245 166.608V186H60.6805V150.288H71.6245V155.024C72.7338 153.445 74.2272 152.208 76.1045 151.312C77.9818 150.373 80.0938 149.904 82.4405 149.904ZM143.87 167.568C143.87 168.592 143.806 169.659 143.678 170.768H118.91C119.08 172.987 119.784 174.693 121.022 175.888C122.302 177.04 123.859 177.616 125.694 177.616C128.424 177.616 130.323 176.464 131.39 174.16H143.038C142.44 176.507 141.352 178.619 139.774 180.496C138.238 182.373 136.296 183.845 133.95 184.912C131.603 185.979 128.979 186.512 126.078 186.512C122.579 186.512 119.464 185.765 116.734 184.272C114.003 182.779 111.87 180.645 110.334 177.872C108.798 175.099 108.03 171.856 108.03 168.144C108.03 164.432 108.776 161.189 110.27 158.416C111.806 155.643 113.939 153.509 116.67 152.016C119.4 150.523 122.536 149.776 126.078 149.776C129.534 149.776 132.606 150.501 135.294 151.952C137.982 153.403 140.072 155.472 141.566 158.16C143.102 160.848 143.87 163.984 143.87 167.568ZM132.67 164.688C132.67 162.811 132.03 161.317 130.75 160.208C129.47 159.099 127.87 158.544 125.95 158.544C124.115 158.544 122.558 159.077 121.278 160.144C120.04 161.211 119.272 162.725 118.974 164.688H132.67ZM190.283 155.536C190.283 158.139 189.686 160.528 188.491 162.704C187.296 164.837 185.462 166.565 182.987 167.888C180.512 169.211 177.44 169.872 173.771 169.872H166.987V186H156.043V141.072H173.771C177.355 141.072 180.384 141.691 182.859 142.928C185.334 144.165 187.19 145.872 188.427 148.048C189.664 150.224 190.283 152.72 190.283 155.536ZM172.939 161.168C175.03 161.168 176.587 160.677 177.611 159.696C178.635 158.715 179.147 157.328 179.147 155.536C179.147 153.744 178.635 152.357 177.611 151.376C176.587 150.395 175.03 149.904 172.939 149.904H166.987V161.168H172.939ZM200.205 168.08C200.205 164.411 200.887 161.189 202.253 158.416C203.661 155.643 205.559 153.509 207.949 152.016C210.338 150.523 213.005 149.776 215.949 149.776C218.466 149.776 220.663 150.288 222.541 151.312C224.461 152.336 225.933 153.68 226.957 155.344V150.288H237.901V186H226.957V180.944C225.89 182.608 224.397 183.952 222.477 184.976C220.599 186 218.402 186.512 215.885 186.512C212.983 186.512 210.338 185.765 207.949 184.272C205.559 182.736 203.661 180.581 202.253 177.808C200.887 174.992 200.205 171.749 200.205 168.08ZM226.957 168.144C226.957 165.413 226.189 163.259 224.653 161.68C223.159 160.101 221.325 159.312 219.149 159.312C216.973 159.312 215.117 160.101 213.581 161.68C212.087 163.216 211.341 165.349 211.341 168.08C211.341 170.811 212.087 172.987 213.581 174.608C215.117 176.187 216.973 176.976 219.149 176.976C221.325 176.976 223.159 176.187 224.653 174.608C226.189 173.029 226.957 170.875 226.957 168.144ZM265.786 149.776C268.303 149.776 270.501 150.288 272.378 151.312C274.298 152.336 275.77 153.68 276.794 155.344V150.288H287.738V185.936C287.738 189.221 287.077 192.187 285.754 194.832C284.474 197.52 282.49 199.653 279.802 201.232C277.157 202.811 273.85 203.6 269.882 203.6C264.591 203.6 260.303 202.341 257.018 199.824C253.733 197.349 251.855 193.979 251.386 189.712H262.202C262.543 191.077 263.354 192.144 264.634 192.912C265.914 193.723 267.493 194.128 269.37 194.128C271.631 194.128 273.423 193.467 274.746 192.144C276.111 190.864 276.794 188.795 276.794 185.936V180.88C275.727 182.544 274.255 183.909 272.378 184.976C270.501 186 268.303 186.512 265.786 186.512C262.842 186.512 260.175 185.765 257.786 184.272C255.397 182.736 253.498 180.581 252.09 177.808C250.725 174.992 250.042 171.749 250.042 168.08C250.042 164.411 250.725 161.189 252.09 158.416C253.498 155.643 255.397 153.509 257.786 152.016C260.175 150.523 262.842 149.776 265.786 149.776ZM276.794 168.144C276.794 165.413 276.026 163.259 274.49 161.68C272.997 160.101 271.162 159.312 268.986 159.312C266.81 159.312 264.954 160.101 263.418 161.68C261.925 163.216 261.178 165.349 261.178 168.08C261.178 170.811 261.925 172.987 263.418 174.608C264.954 176.187 266.81 176.976 268.986 176.976C271.162 176.976 272.997 176.187 274.49 174.608C276.026 173.029 276.794 170.875 276.794 168.144ZM335.719 167.568C335.719 168.592 335.655 169.659 335.527 170.768H310.759C310.93 172.987 311.634 174.693 312.871 175.888C314.151 177.04 315.709 177.616 317.543 177.616C320.274 177.616 322.173 176.464 323.239 174.16H334.887C334.29 176.507 333.202 178.619 331.623 180.496C330.087 182.373 328.146 183.845 325.799 184.912C323.453 185.979 320.829 186.512 317.927 186.512C314.429 186.512 311.314 185.765 308.583 184.272C305.853 182.779 303.719 180.645 302.183 177.872C300.647 175.099 299.879 171.856 299.879 168.144C299.879 164.432 300.626 161.189 302.119 158.416C303.655 155.643 305.789 153.509 308.519 152.016C311.25 150.523 314.386 149.776 317.927 149.776C321.383 149.776 324.455 150.501 327.143 151.952C329.831 153.403 331.922 155.472 333.415 158.16C334.951 160.848 335.719 163.984 335.719 167.568ZM324.519 164.688C324.519 162.811 323.879 161.317 322.599 160.208C321.319 159.099 319.719 158.544 317.799 158.544C315.965 158.544 314.407 159.077 313.127 160.144C311.89 161.211 311.122 162.725 310.823 164.688H324.519Z" fill="black"/>
<mask id="mask0_14_225" style="mask-type:luminance" maskUnits="userSpaceOnUse" x="70" y="0" width="208" height="145">
<path d="M278 0H70V144.499H278V0Z" fill="white"/>
</mask>
<g mask="url(#mask0_14_225)">
<path d="M96.9803 79.3544C91.0616 74.1549 87.5234 66.7657 87.1845 58.8954C86.8458 51.0256 89.7342 43.3568 95.1835 37.6689C100.633 31.9794 108.169 28.762 116.045 28.762C123.924 28.762 131.46 31.9794 136.909 37.6689C142.358 43.3568 145.247 51.0256 144.908 58.8954C144.569 66.7653 141.031 74.1549 135.112 79.3544C142.924 82.9314 149.601 88.5871 154.41 95.7055C162.412 85.6682 173.029 78.0304 185.09 73.6339C175.66 66.996 169.514 56.647 168.195 45.1903C166.876 33.7336 170.511 22.2592 178.184 13.652C185.859 5.04316 196.841 0.119873 208.374 0.119873C219.907 0.119873 230.889 5.04357 238.564 13.652C246.237 22.2592 249.872 33.7336 248.553 45.1903C247.234 56.647 241.088 66.9956 231.658 73.6339C245.149 78.3768 256.841 87.1743 265.137 98.8213C273.432 110.467 277.924 124.394 277.996 138.692C277.996 141.884 275.409 144.471 272.218 144.471C269.028 144.471 266.441 141.884 266.441 138.692C266.441 118.05 255.428 98.9761 237.551 88.6544C219.676 78.3347 197.651 78.3347 179.772 88.6544C161.895 98.9757 150.883 118.049 150.883 138.692C150.883 141.884 148.297 144.471 145.105 144.471C141.915 144.471 139.328 141.884 139.328 138.692C139.314 127.474 142.051 116.424 147.301 106.511C142.675 97.136 134.066 90.3495 123.87 88.0404C113.675 85.7314 102.982 88.1453 94.769 94.6123C86.5553 101.079 81.698 110.907 81.5494 121.359C81.5494 124.551 78.9626 127.137 75.7711 127.137C72.5812 127.137 69.9945 124.551 69.9945 121.359C69.9993 112.51 72.5442 103.847 77.3259 96.4007C82.1092 88.9549 88.9292 83.0379 96.977 79.3544H96.9803ZM237.148 40.4702C237.148 32.808 234.104 25.4609 228.686 20.0434C223.269 14.6247 215.92 11.5815 208.258 11.5815C200.598 11.5815 193.249 14.6247 187.832 20.0434C182.415 25.4604 179.37 32.808 179.37 40.4702C179.37 48.1323 182.415 55.4795 187.832 60.8982C193.249 66.3152 200.598 69.3584 208.258 69.3584C215.921 69.3584 223.269 66.3152 228.686 60.8982C234.104 55.4795 237.148 48.1319 237.148 40.4702ZM115.815 40.4702C111.218 40.4702 106.809 42.2958 103.558 45.547C100.308 48.7983 98.481 53.2059 98.481 57.8038C98.481 62.4018 100.308 66.809 103.558 70.0607C106.809 73.3119 111.218 75.1375 115.815 75.1375C120.413 75.1375 124.82 73.3119 128.071 70.0607C131.323 66.8094 133.148 62.4018 133.148 57.8038C133.15 53.2752 131.379 48.9275 128.215 45.6874C125.053 42.4491 120.747 40.5767 116.22 40.4702H115.815Z" fill="black"/>
</g>
</svg>
